<svg height="252.60422" width="254.84285" xmlns="http://www.w3.org/2000/svg"><path d="m470.00002 245.57646c0 72.78325-59.00248 131.78572-131.78573 131.78572-72.78324 0-131.78572-59.00247-131.78572-131.78572 0-72.78324 59.00248-131.78572 131.78572-131.78572 27.04502 0 53.43521 8.32079 75.58919 23.83318" style="opacity:.8;stroke:#808080;stroke-width:18.395399;stroke-linecap:round;stroke-dasharray:18.395399 36.790797;fill:none" transform="matrix(.30101233 .84373477 -.84373477 .30101233 231.72468 -232.950588)"/><g fill="#ffba42"><path d="m562.85714 320.21933c0 29.58668-23.98475 53.57143-53.57143 53.57143-29.58669 0-53.57143-23.98475-53.57143-53.57143s23.98474-53.57143 53.57143-53.57143c29.58668 0 53.57143 23.98475 53.57143 53.57143z" transform="translate(-382.97183 -193.885215)"/><path d="m562.85714 320.21933c0 29.58668-23.98475 53.57143-53.57143 53.57143-29.58669 0-53.57143-23.98475-53.57143-53.57143s23.98474-53.57143 53.57143-53.57143c29.58668 0 53.57143 23.98475 53.57143 53.57143z" opacity=".4" transform="matrix(.64331217 0 0 .64331217 -108.84967 -6.64849)"/></g></svg>